<svg id="ad3b6531-25ba-4a8c-945b-5e0793921ba2" data-name="圖層 1" xmlns="http://www.w3.org/2000/svg" viewBox="0 0 61.78 61.78"><defs><style>.eb3b0564-78a7-4e29-abdc-c499b00bae33{fill:#fff;}.b2ab1b9b-ecb2-4914-8650-c157a63aa3ed{fill:#e52439;}</style></defs><title>新光換匯_網頁_KV_fin-06</title><circle class="eb3b0564-78a7-4e29-abdc-c499b00bae33" cx="30.89" cy="30.89" r="30.89"/><path class="b2ab1b9b-ecb2-4914-8650-c157a63aa3ed" d="M31.32,12a23.4,23.4,0,0,1,12.47,3.55A17.54,17.54,0,0,1,50,22.09a13.93,13.93,0,0,1,1.63,5.29,13.64,13.64,0,0,1-2.46,9.26,27.8,27.8,0,0,1-5,5.42,76.52,76.52,0,0,1-11.78,8.27,8,8,0,0,1-2,.91,2.63,2.63,0,0,1-.39.06.66.66,0,0,1-.77-.7c0-.45.1-.91.16-1.36.09-.68.18-1.36.25-2a2.3,2.3,0,0,0,0-.64,1.1,1.1,0,0,0-.54-.8,4.31,4.31,0,0,0-1.72-.56,23,23,0,0,1-8.52-3,18.07,18.07,0,0,1-6.08-5.81,14.35,14.35,0,0,1-2.15-5.9,13.85,13.85,0,0,1,2-9.12,18.18,18.18,0,0,1,7-6.55,22.79,22.79,0,0,1,6.8-2.4A25.64,25.64,0,0,1,31.32,12Zm3.75,18L35,30l-.15-.19L31,24.56a.56.56,0,0,0-.51-.26H29.23c-.32,0-.46.15-.46.46v8.81c0,.33.13.46.46.47h1.23c.41,0,.51-.12.51-.53V28.38l.06,0,.17.21L35,33.76a.62.62,0,0,0,.56.28h1.09c.49,0,.59-.11.59-.61V24.89a1,1,0,0,0,0-.17.4.4,0,0,0-.44-.42H35.6c-.43,0-.53.11-.53.53V30Zm5.87-3.44h3.79c.38,0,.52-.13.52-.51V24.81c0-.37-.14-.51-.5-.51H39.2c-.36,0-.48.12-.48.48v8.79c0,.34.11.46.45.47h5.62c.32,0,.45-.15.46-.47V32.45c0-.52-.09-.61-.6-.61H41.23c-.31,0-.31,0-.31-.32s0-.66,0-1,.07-.27.27-.27h3.58c.34,0,.47-.14.48-.47V28.61c0-.42-.13-.55-.56-.55H40.94ZM17.32,29.15v4.41c0,.36.12.48.47.48h5.57c.36,0,.49-.14.49-.49V32.36c0-.4-.12-.52-.52-.52H19.84c-.31,0-.31,0-.31-.31V25a2.26,2.26,0,0,0,0-.26.39.39,0,0,0-.43-.4H17.85c-.42,0-.53.11-.53.53Zm10,0V24.81c0-.39-.12-.51-.51-.51H25.58c-.32,0-.46.15-.46.47q0,4.39,0,8.8c0,.32.13.46.45.47h1.26c.38,0,.49-.12.49-.5Z"/><path class="eb3b0564-78a7-4e29-abdc-c499b00bae33" d="M35.07,30V24.83c0-.42.1-.53.53-.53h1.23a.4.4,0,0,1,.44.42,1,1,0,0,1,0,.17v8.54c0,.5-.1.61-.59.61H35.59a.62.62,0,0,1-.56-.28L31.2,28.57,31,28.36l-.06,0v5.13c0,.41-.1.52-.51.53H29.23c-.33,0-.46-.14-.46-.47V24.76c0-.31.14-.45.46-.46h1.24a.56.56,0,0,1,.51.26l3.87,5.23L35,30Z"/><path class="eb3b0564-78a7-4e29-abdc-c499b00bae33" d="M40.94,26.51v1.55h3.75c.43,0,.56.13.56.55V29.8c0,.33-.14.47-.48.47H41.19c-.2,0-.28,0-.27.27s0,.66,0,1,0,.32.31.32h3.42c.51,0,.6.09.6.61v1.12c0,.32-.14.46-.46.47H39.17c-.34,0-.45-.13-.45-.47V24.78c0-.36.12-.48.48-.48h5.55c.36,0,.5.14.5.51V26c0,.38-.14.51-.52.51H40.94Z"/><path class="eb3b0564-78a7-4e29-abdc-c499b00bae33" d="M17.32,29.15V24.83c0-.42.11-.53.53-.53h1.24a.39.39,0,0,1,.43.4,2.26,2.26,0,0,1,0,.26v6.57c0,.31,0,.31.31.31h3.49c.4,0,.52.12.52.52v1.19c0,.35-.13.49-.49.49H17.79c-.35,0-.47-.12-.47-.48Z"/><path class="eb3b0564-78a7-4e29-abdc-c499b00bae33" d="M27.32,29.17v4.37c0,.38-.11.49-.49.5H25.57c-.32,0-.45-.15-.45-.47q0-4.41,0-8.8c0-.32.14-.46.46-.47h1.23c.39,0,.51.12.51.51Z"/></svg>