<svg id="b8750b87-77b4-4f78-8293-f85c93bef767" data-name="圖層 1" xmlns="http://www.w3.org/2000/svg" viewBox="0 0 61.78 61.78"><defs><style>.b47e0cf3-a7f5-48c1-984e-21d8831ed1f9{fill:#e52439;}.a25f18be-a305-4a63-b9bb-3add6c2faf5f{fill:#fff;}</style></defs><title>新光換匯_網頁_KV_fin-06</title><path class="b47e0cf3-a7f5-48c1-984e-21d8831ed1f9" d="M36.15,39.52h6.53c.24,0,.33-.07.35-.31.06-.48.15-1,.22-1.44.35-2.26.69-4.52,1-6.78.05-.36.05-.36-.3-.36H36.2s-.1,0-.14,0c-.28.13-.26-.06-.25-.24V24.9a6.89,6.89,0,0,1,.13-1.36,4,4,0,0,1,1.89-2.78,5.55,5.55,0,0,1,2.76-.7h3.76c.28,0,.36-.07.36-.35,0-2.29,0-4.58,0-6.87,0-.28-.09-.39-.37-.43a39.69,39.69,0,0,0-7.78-.48,12.06,12.06,0,0,0-4.26,1,9.59,9.59,0,0,0-4.72,4.47,13.28,13.28,0,0,0-1.38,5.94c0,2.29,0,4.58,0,6.87,0,.39,0,.39-.38.39H18.72c-.27,0-.36.06-.36.34,0,2.75,0,5.49,0,8.24,0,.26.09.33.35.32h7.12c.28,0,.37.06.37.36,0,6.47,0,14.85,0,21.55a31.61,31.61,0,0,0,4.7.35,32,32,0,0,0,4.92-.39c0-6.72,0-15,0-21.52C35.8,39.59,35.88,39.52,36.15,39.52Z"/><path class="a25f18be-a305-4a63-b9bb-3add6c2faf5f" d="M61.78,30.89A30.89,30.89,0,1,0,26.19,61.43c0-6.7,0-15.08,0-21.55,0-.3-.09-.36-.37-.36H18.71c-.26,0-.35-.06-.35-.32,0-2.75,0-5.49,0-8.24,0-.28.09-.34.36-.34h7.09c.38,0,.38,0,.38-.39,0-2.29,0-4.58,0-6.87a13.28,13.28,0,0,1,1.38-5.94A9.59,9.59,0,0,1,32.3,13a12.06,12.06,0,0,1,4.26-1,39.69,39.69,0,0,1,7.78.48c.28,0,.37.15.37.43,0,2.29,0,4.58,0,6.87,0,.28-.08.35-.36.35H40.59a5.55,5.55,0,0,0-2.76.7,4,4,0,0,0-1.89,2.78,6.89,6.89,0,0,0-.13,1.36v5.5c0,.18,0,.37.25.24,0,0,.1,0,.14,0H44c.35,0,.35,0,.3.36-.35,2.26-.69,4.52-1,6.78-.07.48-.16,1-.22,1.44,0,.24-.11.32-.35.31H36.15c-.27,0-.35.07-.35.35,0,6.52,0,14.8,0,21.52A30.9,30.9,0,0,0,61.78,30.89Z"/></svg>